# 
# Generated by Sweet Home 3D - mi? sep 06 07:51:31 CST 2023
# http://www.sweethome3d.com/
# 
mtllib PrefabCasa.mtl
g ground_1
usemtl ground_1
v 95.75 0.0 -5.1902814
v 95.75 0.0 303.31018
v 605.25 0.0 303.31018
v 605.25 0.0 -5.1902814
v 603.5 0.0 -0.43981934
v 603.5 0.0 295.56018
v 97.5 0.0 295.56018
v 97.5 0.0 -0.43981934
vn 0.0 1.0 0.0
vn 0.0 0.0 0.0
f 5//1 4//1 1//1
f 8//1 5//1 1//1
f 8//1 1//1 2//1
f 7//1 8//1 2//1
f 7//1 2//1 3//1
f 6//1 7//1 3//1
f 6//1 3//1 4//1
f 6//1 4//1 5//1
g wall_1_2
usemtl wall_1_2
v 99.5 0.0 -0.43981934
v 99.5 0.0 299.56018
v 103.25 0.0 295.81018
v 103.25 0.0 3.3101807
vn 0.0 -1.0 0.0
f 12//3 11//3 10//3
f 12//3 10//3 9//3
g wall_1_3
usemtl wall_1_2
v 95.75 0.0 -4.1898193
f 9//3 10//3 2//3
f 9//3 2//3 13//3
g wall_1_4
usemtl wall_1_2
v 103.25 250.0 295.81018
v 99.5 250.0 299.56018
v 103.25 250.0 3.3101807
v 99.5 250.0 -0.43981934
vn 0.70710677 0.0 0.70710677
vn 1.0 0.0 0.0
vn 0.70710677 0.0 -0.70710677
f 10//4 11//4 14//4 15//4
f 11//5 12//5 16//5 14//5
f 12//6 9//6 17//6 16//6
g wall_1_5
usemtl wall_1_2
v 95.75 250.0 303.31018
v 95.75 250.0 -4.1898193
vn -1.0 0.0 0.0
f 13//7 2//7 18//7 19//7
f 2//4 10//4 15//4 18//4
f 9//6 13//6 19//6 17//6
g wall_1_6
usemtl wall_1_2
f 17//1 15//1 14//1
f 17//1 14//1 16//1
g wall_1_7
usemtl wall_1_2
f 19//1 18//1 15//1
f 19//1 15//1 17//1
g wall_2_8
usemtl wall_1_2
v 601.5 0.0 299.56018
v 597.75 0.0 295.81018
f 21//3 20//3 10//3
f 21//3 10//3 11//3
g wall_2_9
usemtl wall_1_2
f 20//3 3//3 2//3
f 20//3 2//3 10//3
g wall_2_10
usemtl wall_1_2
v 597.75 250.0 295.81018
v 601.5 250.0 299.56018
vn -0.70710677 0.0 -0.70710677
vn 0.0 0.0 -1.0
f 11//8 10//8 15//8 14//8
f 20//6 21//6 22//6 23//6
f 21//9 11//9 14//9 22//9
g wall_2_11
usemtl wall_1_2
v 605.25 250.0 303.31018
vn 0.0 0.0 1.0
f 10//8 2//8 18//8 15//8
f 2//10 3//10 24//10 18//10
f 3//6 20//6 23//6 24//6
g wall_2_12
usemtl wall_1_2
f 14//1 15//1 23//1
f 14//1 23//1 22//1
g wall_2_13
usemtl wall_1_2
f 15//1 18//1 24//1
f 15//1 24//1 23//1
g wall_3_14
usemtl wall_1_2
v 601.5 0.0 -0.43981934
v 597.75 0.0 3.3101807
f 20//3 21//3 26//3
f 20//3 26//3 25//3
g wall_3_15
usemtl wall_1_2
v 605.25 0.0 -4.1898193
f 3//3 20//3 25//3
f 3//3 25//3 27//3
g wall_3_16
usemtl wall_1_2
v 597.75 250.0 3.3101807
v 601.5 250.0 -0.43981934
vn -0.70710677 0.0 0.70710677
f 25//8 26//8 28//8 29//8
f 26//7 21//7 22//7 28//7
f 21//11 20//11 23//11 22//11
g wall_3_17
usemtl wall_1_2
v 605.25 250.0 -4.1898193
f 27//8 25//8 29//8 30//8
f 20//11 3//11 24//11 23//11
f 3//5 27//5 30//5 24//5
g wall_3_18
usemtl wall_1_2
f 29//1 28//1 22//1
f 29//1 22//1 23//1
g wall_3_19
usemtl wall_1_2
f 30//1 29//1 23//1
f 30//1 23//1 24//1
g wall_4_20
usemtl wall_1_2
v 144.99115 0.0 3.3101807
v 144.99115 0.0 -0.43981934
f 32//3 31//3 12//3
f 32//3 12//3 9//3
v 232.99115 0.0 -0.43981934
v 232.99115 0.0 3.3101807
f 25//3 26//3 34//3
f 25//3 34//3 33//3
g wall_4_21
usemtl wall_1_2
v 144.99115 0.0 -4.1898193
f 35//3 32//3 9//3
f 35//3 9//3 13//3
v 232.99115 0.0 -4.1898193
f 27//3 25//3 33//3
f 27//3 33//3 36//3
g wall_4_22
usemtl wall_1_2
v 144.99115 250.0 3.3101807
v 144.99115 250.0 -0.43981934
f 9//11 12//11 16//11 17//11
f 12//10 31//10 37//10 16//10
f 31//5 32//5 38//5 37//5
v 232.99115 250.0 3.3101807
v 232.99115 250.0 -0.43981934
f 33//7 34//7 39//7 40//7
f 34//10 26//10 28//10 39//10
f 26//4 25//4 29//4 28//4
v 144.99115 171.0 -0.43981934
v 144.99115 171.0 3.3101807
v 232.99115 171.0 3.3101807
v 232.99115 171.0 -0.43981934
f 41//7 42//7 37//7 38//7
f 42//10 43//10 39//10 37//10
f 43//5 44//5 40//5 39//5
f 44//3 43//3 42//3
f 44//3 42//3 41//3
g wall_4_23
usemtl wall_1_2
v 144.99115 250.0 -4.1898193
f 13//11 9//11 17//11 19//11
f 32//5 35//5 45//5 38//5
f 35//9 13//9 19//9 45//9
v 232.99115 250.0 -4.1898193
f 36//7 33//7 40//7 46//7
f 25//4 27//4 30//4 29//4
f 27//9 36//9 46//9 30//9
v 144.99115 171.0 -4.1898193
v 232.99115 171.0 -4.1898193
f 47//7 41//7 38//7 45//7
f 44//5 48//5 46//5 40//5
f 48//9 47//9 45//9 46//9
f 48//3 44//3 41//3
f 48//3 41//3 47//3
g wall_4_24
usemtl wall_1_2
f 17//1 16//1 37//1
f 17//1 37//1 38//1
f 40//1 39//1 28//1
f 40//1 28//1 29//1
f 38//1 37//1 39//1
f 38//1 39//1 40//1
g wall_4_25
usemtl wall_1_2
f 19//1 17//1 38//1
f 19//1 38//1 45//1
f 46//1 40//1 29//1
f 46//1 29//1 30//1
f 45//1 38//1 40//1
f 45//1 40//1 46//1
g room_5_26
usemtl wall_1_2
f 8//1 7//1 6//1
f 8//1 6//1 5//1
g Montant_27
usemtl white
v 232.99115 171.0 4.3104835
v 232.99115 0.0 4.3104835
v 232.99115 0.0 -5.190266
v 232.99115 171.0 -5.190266
v 227.70154 0.0 -5.190267
v 227.70154 0.0 0.36017087
v 227.70154 166.4892 0.36017087
v 227.70154 166.4892 -5.190267
v 144.99115 171.0 -5.1902814
v 144.99115 171.0 4.310468
v 149.22284 167.39136 0.36015713
v 149.22284 167.39136 4.310469
v 149.22284 0.0 4.310469
v 149.22284 0.0 0.36015713
v 144.99115 0.0 -5.1902814
v 144.99115 0.0 4.310468
v 228.75946 167.39136 0.36017105
v 228.75946 167.39136 4.310483
v 150.28076 166.4892 0.3601573
v 150.28076 0.0 0.3601573
v 150.28076 0.0 -5.1902804
v 150.28076 166.4892 -5.1902804
v 228.75946 0.0 4.310483
v 228.75946 0.0 0.36017105
vn 1.0 0.0 0.0000002
vn -1.0 0.0 -0.0000002
vn -0.0000002 0.0 1.0
vn -0.0000002 0.0 1.0
vn 0.0000002 0.0 -1.0
vn 0.0000002 0.0 -1.0
f 49//12 50//12 51//12
f 49//12 51//12 52//12
f 53//13 54//13 55//13
f 53//13 55//13 56//13
f 57//1 58//1 49//1
f 57//1 49//1 52//1
f 59//12 60//12 61//12
f 59//12 61//12 62//12
f 58//13 57//13 63//13
f 58//13 63//13 64//13
f 60//3 59//3 65//3
f 60//3 65//3 66//3
f 67//12 68//12 69//12
f 67//12 69//12 70//12
f 71//14 50//14 49//14
f 66//15 71//15 49//15
f 66//15 49//15 58//15
f 60//15 66//15 58//15
f 60//14 58//14 64//14
f 60//15 64//15 61//15
f 71//13 66//13 65//13
f 71//13 65//13 72//13
f 70//16 69//16 63//16
f 70//16 63//16 57//16
f 70//17 57//17 52//17
f 56//17 70//17 52//17
f 56//16 52//16 51//16
f 56//16 51//16 53//16
f 70//3 56//3 55//3
f 70//3 55//3 67//3
f 62//3 61//3 64//3
f 62//3 64//3 63//3
f 51//3 50//3 71//3
f 51//3 71//3 72//3
f 63//3 69//3 68//3
f 63//3 68//3 62//3
f 53//3 51//3 72//3
f 53//3 72//3 54//3
f 59//15 67//15 55//15
f 59//15 55//15 65//15
f 54//15 72//15 65//15
f 54//15 65//15 55//15
f 59//15 62//15 68//15
f 59//15 68//15 67//15
